<?xml version="1.0" encoding="UTF-8" standalone="no"?>
<svg width="36px" height="23px" viewBox="0 0 36 23" version="1.1" xmlns="http://www.w3.org/2000/svg" xmlns:xlink="http://www.w3.org/1999/xlink" xmlns:sketch="http://www.bohemiancoding.com/sketch/ns">
    <!-- Generator: Sketch 3.4.4 (17249) - http://www.bohemiancoding.com/sketch -->
    <title>Icon - Menu</title>
    <desc>Created with Sketch.</desc>
    <defs></defs>
    <g id="Page-1" stroke="none" stroke-width="1" fill="none" fill-rule="evenodd" sketch:type="MSPage">
        <g id="Desktop-HD" sketch:type="MSArtboardGroup" transform="translate(-35.000000, -41.000000)" fill="#2D7CE4">
            <path d="M37.7132353,46.4508671 C39.2117138,46.4508671 40.4264706,45.2306489 40.4264706,43.7254335 C40.4264706,42.2202182 39.2117138,41 37.7132353,41 C36.2147568,41 35,42.2202182 35,43.7254335 C35,45.2306489 36.2147568,46.4508671 37.7132353,46.4508671 Z M37.7132353,55.2254335 C39.2117138,55.2254335 40.4264706,54.0052154 40.4264706,52.5 C40.4264706,50.9947846 39.2117138,49.7745665 37.7132353,49.7745665 C36.2147568,49.7745665 35,50.9947846 35,52.5 C35,54.0052154 36.2147568,55.2254335 37.7132353,55.2254335 Z M37.7132353,64 C39.2117138,64 40.4264706,62.7797818 40.4264706,61.2745665 C40.4264706,59.7693511 39.2117138,58.5491329 37.7132353,58.5491329 C36.2147568,58.5491329 35,59.7693511 35,61.2745665 C35,62.7797818 36.2147568,64 37.7132353,64 Z M43.7352941,41 L71,41 L71,46.4508671 L43.7352941,46.4508671 L43.7352941,41 Z M43.7352941,49.7745665 L71,49.7745665 L71,55.2254335 L43.7352941,55.2254335 L43.7352941,49.7745665 Z M43.7352941,58.5491329 L71,58.5491329 L71,64 L43.7352941,64 L43.7352941,58.5491329 Z" id="Icon---Menu" sketch:type="MSShapeGroup"></path>
        </g>
    </g>
</svg>